<svg width="44" height="44" viewBox="0 0 44 44" fill="none" xmlns="http://www.w3.org/2000/svg">
<circle cx="22.2477" cy="21.6915" r="21.6915" fill="white"/>
<path d="M24.0009 10.8762C23.797 10.8991 23.3281 11.0185 23.0386 11.1195C21.7216 11.5739 20.7267 12.6984 20.2945 14.2177C20.0621 15.0393 20.0377 15.3239 20.0173 17.4628L19.9969 19.4273H18.4108H16.8247V21.5387V23.6501H18.4149H20.005V28.9974V34.3447H21.9418H23.8785V28.9974V23.6501H25.4809H27.0793L27.3157 21.5708C27.4462 20.4325 27.5522 19.4824 27.5482 19.4594C27.5482 19.4411 26.7204 19.4273 25.7093 19.4273H23.8704L23.8867 17.7841C23.903 16.2235 23.9071 16.1317 23.9968 15.8242C24.0702 15.5671 24.1354 15.457 24.3026 15.2688C24.6858 14.8373 25.1099 14.7455 26.7857 14.7455H27.6705V12.8682V10.9909L27.4381 10.9634C26.6104 10.8624 24.5554 10.8073 24.0009 10.8762Z" fill="black"/>
</svg>
