<svg width="44" height="44" viewBox="0 0 44 44" fill="none" xmlns="http://www.w3.org/2000/svg">
<circle cx="21.7067" cy="21.6915" r="21.6915" fill="white"/>
<path fill-rule="evenodd" clip-rule="evenodd" d="M15.4111 32.5372V18.1918H10.997V32.5372H15.4111ZM15.4111 13.1069C15.3848 11.8231 14.533 10.8457 13.1493 10.8457C11.7652 10.8457 10.8608 11.8231 10.8608 13.1069C10.8608 14.3628 11.7389 15.3685 13.0963 15.3685H13.1226C14.533 15.3685 15.4111 14.3628 15.4111 13.1069ZM22.6123 32.5372V24.3639C22.6123 23.9265 22.6438 23.489 22.7719 23.1772C23.122 22.3028 23.9188 21.3976 25.2567 21.3976C27.0093 21.3976 28.1085 22.3968 28.1085 24.3639V32.5372H32.5524V24.1452C32.5524 19.6496 30.1633 17.5578 26.9766 17.5578C24.3637 17.5578 23.2168 19.0251 22.58 20.0238L22.6119 18.1052H18.1758C18.2396 19.4785 18.1758 32.5372 18.1758 32.5372H22.6123Z" fill="black"/>
</svg>
