<svg width="44" height="44" viewBox="0 0 44 44" fill="none" xmlns="http://www.w3.org/2000/svg">
<circle cx="22.1666" cy="21.6915" r="21.6915" fill="white"/>
<path d="M26.219 10.9653C24.1763 11.5085 22.7264 13.3622 22.6169 15.5554C22.5976 15.9288 22.6104 16.3974 22.6491 16.5875L22.7071 16.9474H22.4816C22.0885 16.9474 20.9157 16.7437 20.1424 16.54C18.3059 16.0579 16.4694 15.0937 14.9874 13.8375C14.7232 13.6134 14.1497 13.0431 13.7179 12.5678L12.9318 11.7122L12.8029 11.9363C12.3389 12.7375 12.1456 14.4282 12.4034 15.5011C12.6482 16.5128 13.2475 17.5381 13.9499 18.1424L14.3108 18.4548L14.053 18.4072C13.5375 18.3122 13.022 18.156 12.6289 17.9659L12.2229 17.769V18.1085C12.2229 19.2967 12.8609 20.7566 13.7566 21.6189C14.2656 22.1078 15.2516 22.6782 15.7993 22.8004C16.057 22.8615 15.1678 22.9362 14.5427 22.909C14.0723 22.8887 13.8983 22.909 13.8983 22.9634C13.8983 23.0109 14.0337 23.33 14.2012 23.6763C14.6007 24.5251 15.4062 25.3874 16.1924 25.8288C16.7336 26.1207 17.552 26.3855 17.9386 26.3855C18.0546 26.3855 18.1513 26.4195 18.1513 26.4534C18.1513 26.6639 16.3663 27.6689 15.3998 28.0084C14.3816 28.3615 13.8017 28.4497 12.5 28.4565C11.8492 28.4565 11.3208 28.4769 11.3208 28.4973C11.3208 28.5584 12.2036 29.0676 12.9318 29.4275C14.1368 30.025 15.6704 30.48 17.1203 30.6633C17.8227 30.7516 19.4594 30.7516 20.2649 30.6633C23.2742 30.3238 26.0064 28.9454 28.165 26.6843C29.2541 25.5368 30.0853 24.2942 30.7813 22.7597C31.6705 20.8041 32.0958 19.0047 32.1796 16.8659L32.2182 15.793L32.5533 15.5214C33.217 14.9782 34.5187 13.4641 34.5187 13.2264C34.5187 13.1925 34.2609 13.2671 33.9387 13.3962C33.3201 13.6406 32.3149 13.9122 32.1602 13.8782C32.1087 13.8647 32.2311 13.7289 32.4502 13.5455C32.8562 13.1992 33.3459 12.5542 33.5972 12.0314C33.7776 11.6579 33.9516 11.1758 33.9001 11.1758C33.8872 11.1758 33.6101 11.3116 33.2944 11.4814C32.5984 11.848 32.0185 12.0857 31.3676 12.2622L30.8844 12.3912L30.5879 12.0993C30.1884 11.7054 29.4989 11.2844 28.8803 11.0672C28.1844 10.8227 26.9407 10.7684 26.219 10.9653Z" fill="black"/>
</svg>
